# AST/ASF file generated using VICON BodyLanguage
# -----------------------------------------------
:version 1.10
:name VICON
:units
  mass 1.0
  length 0.45
  angle deg
:documentation
   .ast/.asf automatically generated from VICON data using
   VICON BodyBuilder and BodyLanguage model FoxedUp or BRILLIANT.MOD
:root
   order TX TY TZ RX RY RZ
   axis XYZ
   position 0 0 0  
   orientation 0 0 0 
:bonedata
  begin
     id 1 
     name lhipjoint
     direction 0.643824 -0.71708 0.266994 
     length 2.52133 
     axis 0 0 0  XYZ
  end
  begin
     id 2 
     name lfemur
     direction 0.34202 -0.939693 0  
     length 7.51824  
     axis 0 0 20  XYZ
    dof rx ry rz
    limits (-160.0 20.0)
           (-70.0 70.0)
           (-60.0 70.0)
  end
  begin
     id 3 
     name ltibia
     direction 0.34202 -0.939693 0   
     length 7.3685   
     axis 0 0 20   XYZ
    dof rx
    limits (-10.0 170.0)
  end
  begin
     id 4 
     name lfoot
     direction 0.105419 -0.289636 0.951314   
     length 2.20972   
     axis -90 7.62852e-016 20   XYZ
    dof rx rz
    limits (-45.0 90.0)
           (-70.0 20.0)
  end
  begin
     id 5 
     name ltoes
     direction 1.53549e-011 -4.21833e-011 1   
     length 1.10139   
     axis -90 7.62852e-016 20   XYZ
    dof rx
    limits (-90.0 20.0)
  end
  begin
     id 6 
     name rhipjoint
     direction -0.608823 -0.743445 0.276811   
     length 2.43192  
     axis 0 0 0  XYZ 
  end
  begin
     id 7 
     name rfemur
     direction -0.34202 -0.939693 0   
     length 7.69715   
     axis 0 0 -20   XYZ
    dof rx ry rz
    limits (-160.0 20.0)
           (-70.0 70.0)
           (-70.0 60.0)
  end
  begin
     id 8 
     name rtibia
     direction -0.34202 -0.939693 0   
     length 7.44924   
     axis 0 0 -20   XYZ
    dof rx
    limits (-10.0 170.0)
 end
 begin
     id 9 
     name rfoot
     direction -0.103614 -0.284677 0.953007   
     length 2.22623  
     axis -90 -7.62852e-016 -20   XYZ
    dof rx rz
    limits (-45.0 90.0)
           (-20.0 70.0)
  end
  begin
     id 10 
     name rtoes
     direction -1.53537e-011 -4.22026e-011 1   
     length 1.11   
     axis -90 -7.62852e-016 -20   XYZ
    dof rx
    limits (-90.0 20.0)
  end
  begin
     id 11 
     name lowerback
     direction -0.0101212 0.99662 -0.0815298   
     length 2.08277   
     axis 0 0 0   XYZ
    dof rx ry rz
    limits (-20.0 45.0)
           (-30.0 30.0)
           (-30.0 30.0)
  end
  begin
     id 12 
     name upperback
     direction 0.024314 0.999591 -0.0150645   
     length 2.08524   
     axis 0 0 0   XYZ
    dof rx ry rz
    limits (-20.0 45.0)
           (-30.0 30.0)
           (-30.0 30.0)
  end
  begin
     id 13 
     name thorax
     direction 0.0285959 0.999323 0.0231357   
     length 2.09645   
     axis 0 0 0   XYZ
    dof rx ry rz
    limits (-20.0 45.0)
           (-30.0 30.0)
           (-30.0 30.0)
  end
  begin
     id 14 
     name lowerneck
     direction -0.065512 0.979301 0.191515   
     length 1.63798   
     axis 0 0 0   XYZ
    dof rx ry rz
    limits (-20.0 45.0)
           (-30.0 30.0)
           (-30.0 30.0)
  end
  begin
     id 15 
     name upperneck
     direction 0.0498479 0.98191 -0.182667   
     length 1.68731   
     axis 0 0 0   XYZ
    dof rx ry rz
    limits (-20.0 45.0)
           (-30.0 30.0)
           (-30.0 30.0)
  end
  begin
     id 16
     name head
     direction 0.0230358 0.996257 -0.0833175  
     length 1.69785  
     axis 0 0 0   XYZ
    dof rx ry rz
    limits (-20.0 45.0)
           (-30.0 30.0)
           (-30.0 30.0)
  end
  begin
     id 17 
     name lclavicle
     direction 0.967963 0.201165 -0.150269  
     length 3.63976  
     axis 0 0 0   XYZ
    dof ry rz
    limits (-20.0 10.0)
           (0.0 20.0)
  end
  begin
     id 18 
     name lhumerus
     direction 1 -4.48954e-011 -2.92837e-028   
     length 5.32462   
     axis 180 -30 -90   XYZ
    dof rx ry rz
    limits (-60.0 90.0)
           (-90.0 90.0)
           (-90.0 90.0)
  end
  begin
     id 19
     name lradius
     direction 1 -4.48958e-011 -6.39511e-027   
     length 3.48402   
     axis 180 -30 -90   XYZ
    dof rx
    limits (-10.0 170.0)
  end
  begin
     id 20
     name lwrist
     direction 1 -4.48975e-011 -1.1413e-026   
     length 1.74201   
     axis 6.88575e-015 90 90   XYZ
    dof ry
    limits (-180.0 0.0)
 end
  begin
     id 21 
     name lhand
     direction 1 -4.48899e-011 -2.28192e-026   
     length 0.572476   
     axis 1.45643e-014 90 90   XYZ
    dof rx rz
    limits (-90.0 90.0)
           (-45.0 45.0)
  end
  begin
     id 22 
     name lfingers
     direction 1 -4.49155e-011 -4.5684e-026   
     length 0.461545   
     axis 2.91283e-014 90 90   XYZ
    dof rx
    limits (0.0 90.0)
  end
  begin
     id 23
     name lthumb
     direction 0.707107 -6.34943e-011 0.707107   
     length 0.662688   
     axis -90 45 -2.25915e-014   XYZ
    dof rx rz
    limits (-45.0 45.0)
           (-45.0 45.0)
  end
  begin
     id 24 
     name rclavicle
     direction -0.964103 0.264019 -0.0282629   
     length 3.54491  
     axis 0 0 0   XYZ 
    dof ry rz
    limits (-10.0 20.0)
           (-20.0 0.0)
  end
  begin
     id 25 
     name rhumerus
     direction -1 -4.48964e-011 -2.45032e-027  
     length 5.33589   
     axis 180 30 90   XYZ
    dof rx ry rz
    limits (-90.0 60.0)
           (-90.0 90.0)
           (-90.0 90.0)
  end
  begin
     id 26 
     name rradius
     direction -1 -4.48987e-011 -1.55093e-027   
     length 3.64134   
     axis 180 30 90   XYZ
    dof rx
    limits (-10.0 170.0)
  end
  begin
     id 27 
     name rwrist
     direction -1 -4.4897e-011 -1.14128e-026   
     length 1.82067   
     axis 6.88575e-015 -90 -90   XYZ
    dof ry
    limits (-180.0 0.0)
  end
  begin
     id 28
     name rhand
     direction -1 -4.49021e-011 -2.28301e-026   
     length 0.734811   
     axis 1.45643e-014 -90 -90   XYZ
    dof rx rz
    limits (-90.0 90.0)
           (-45.0 45.0)
  end
  begin
     id 29
     name rfingers
     direction -1 -4.48862e-011 -4.56319e-026   
     length 0.592424   
     axis 2.91283e-014 -90 -90   XYZ
    dof rx
    limits (0.0 90.0)
  end
  begin
     id 30
     name rthumb
     direction -0.707107 -6.34978e-011 0.707107   
     length 0.850605   
     axis -90 -45 2.25915e-014   XYZ
    dof rx rz
    limits (-45.0 45.0)
           (-45.0 45.0)
  end
:hierarchy
  begin
    root lhipjoint rhipjoint lowerback
    lhipjoint lfemur
    lfemur ltibia
    ltibia lfoot
    lfoot ltoes
    rhipjoint rfemur
    rfemur rtibia
    rtibia rfoot
    rfoot rtoes
    lowerback upperback
    upperback thorax
    thorax lowerneck lclavicle rclavicle
    lowerneck upperneck
    upperneck head
    lclavicle lhumerus
    lhumerus lradius
    lradius lwrist
    lwrist lhand lthumb
    lhand lfingers
    rclavicle rhumerus
    rhumerus rradius
    rradius rwrist
    rwrist rhand rthumb
    rhand rfingers
  end

#!OML:ASF F:\VICON\USERDATA\INSTALL\rory3\rory3.ASF
:FULLY-SPECIFIED
:DEGREES
135
root 1.25791 17.6249 11.6934 -172.659 -2.48896 176.697
lowerback 3.84484 -1.46153 -5.5125
upperback 0.039728 -2.16831 1.81344
thorax -1.84186 -1.03242 5.0879
lowerneck -23.5115 -2.66409 -8.93037
upperneck 32.5835 0.0529988 3.69228
head 15.452 -0.02316 3.26851
rclavicle -4.17448e-015 -1.59028e-015
rhumerus -33.5829 -4.8316 -81.155
rradius 32.8608
rwrist 18.8339
rhand -20.7304 2.05903
rfingers 7.12502
rthumb 5.63464 -27.8461
lclavicle -4.17448e-015 -1.59028e-015
lhumerus -31.6061 6.70147 86.98
lradius 27.5812
lwrist -8.87753
lhand -12.5238 27.1199
lfingers 7.12502
lthumb 13.5522 56.6589
rfemur -36.1561 2.62061 15.3802
rtibia 29.3569
rfoot -11.8213 -5.1061
rtoes 1.57829
lfemur -6.06205 2.6328 -27.797
ltibia 17.2416
lfoot -15.5423 1.05326
ltoes -5.75074
136
root 1.27219 17.6255 11.6382 -172.63 -2.63788 176.617
lowerback 3.84102 -1.4638 -5.62127
upperback 0.062415 -2.17557 1.83644
thorax -1.81049 -1.03684 5.17329
lowerneck -23.4239 -2.71497 -9.03891
upperneck 32.4231 -0.0444698 3.78662
head 15.3649 -0.0658999 3.29947
rclavicle -1.05356e-014 2.06736e-014
rhumerus -33.7815 -4.66867 -81.1559
rradius 33.1378
rwrist 18.1825
rhand -20.5865 1.9464
rfingers 7.12502
rthumb 5.77356 -27.9549
lclavicle -1.05356e-014 2.06736e-014
lhumerus -31.5844 6.95019 86.8515
lradius 27.4675
lwrist -9.05235
lhand -12.5955 26.8586
lfingers 7.12502
lthumb 13.4831 56.4022
rfemur -36.1207 2.83124 15.182
rtibia 29.0655
rfoot -11.6873 -5.31941
rtoes 0.921115
lfemur -5.7464 2.63497 -27.7946
ltibia 16.8666
lfoot -15.4627 0.913152
ltoes -7.8998
137
root 1.28327 17.6258 11.5746 -172.621 -2.77965 176.611
lowerback 3.78066 -1.47132 -5.60846
upperback 0.118614 -2.18141 1.87204
thorax -1.71678 -1.04491 5.20004
lowerneck -23.3671 -2.73881 -8.98364
upperneck 32.1753 -0.120438 3.70511
head 15.2417 -0.1083 3.22681
rclavicle -8.44835e-015 -3.18055e-015
rhumerus -33.8429 -4.50155 -81.1274
rradius 33.3091
rwrist 17.5692
rhand -20.402 2.04757
rfingers 7.12502
rthumb 5.9517 -27.8488
lclavicle -8.44835e-015 -3.18055e-015
lhumerus -31.5415 7.1456 86.7342
lradius 27.446
lwrist -9.12844
lhand -12.6005 26.6968
lfingers 7.12502
lthumb 13.4783 56.2407
rfemur -36.0637 2.9526 15.1047
rtibia 28.8683
rfoot -11.5443 -5.44834
rtoes 0.411803
lfemur -5.34378 2.51846 -27.7215
ltibia 16.4561
lfoot -15.4001 0.853365
ltoes -11.452
138
root 1.29379 17.6244 11.5105 -172.598 -2.8747 176.568
lowerback 3.71469 -1.44132 -5.581
upperback 0.15491 -2.13653 1.8644
thorax -1.64935 -1.02604 5.17144
lowerneck -23.2109 -2.75358 -8.785
upperneck 31.8107 -0.231026 3.53111
head 15.0444 -0.161234 3.07844
rclavicle -2.10712e-014 1.82882e-014
rhumerus -33.8952 -4.29221 -81.1584
rradius 33.5039
rwrist 16.7613
rhand -20.213 1.92959
rfingers 7.12502
rthumb 6.13417 -27.9616
lclavicle -2.10712e-014 1.82882e-014
lhumerus -31.5462 7.03588 86.7076
lradius 27.494
lwrist -8.85703
lhand -12.7277 26.7732
lfingers 7.12502
lthumb 13.3557 56.3251
rfemur -36.0417 3.06825 15.0157
rtibia 28.7546
rfoot -11.2682 -5.58522
rtoes 0.140057
lfemur -4.9205 2.37483 -27.7027
ltibia 16.0747
lfoot -15.4526 0.87666
ltoes -13.4883
139
root 1.30862 17.6221 11.4518 -172.576 -3.10378 176.594
lowerback 3.70399 -1.44097 -5.46136
upperback 0.230342 -2.13099 1.86077
thorax -1.57051 -1.02934 5.0975
lowerneck -23.2801 -2.79717 -8.71143
upperneck 31.5747 -0.357361 3.50329
head 14.9597 -0.218645 3.01826
rclavicle 2.08724e-014 6.36111e-015
rhumerus -33.8588 -4.09507 -81.2436
rradius 33.8062
rwrist 15.9066
rhand -19.8875 1.73559
rfingers 7.12502
rthumb 6.44846 -28.1462
lclavicle 2.08724e-014 6.36111e-015
lhumerus -31.4797 6.8361 86.6686
lradius 27.5913
lwrist -8.61871
lhand -12.8502 26.7537
lfingers 7.12502
lthumb 13.2376 56.3134
rfemur -35.9789 3.03181 15.0487
rtibia 28.7004
rfoot -10.9467 -5.60274
rtoes 0.461586
lfemur -4.55673 2.22886 -27.5632
ltibia 15.7703
lfoot -15.4731 0.79503
ltoes -13.6223
140
root 1.32601 17.621 11.3955 -172.51 -3.44811 176.579
lowerback 3.75765 -1.50417 -5.45474
upperback 0.251295 -2.21795 1.9452
thorax -1.56474 -1.07424 5.18698
lowerneck -23.5256 -2.85343 -8.85992
upperneck 31.5462 -0.390543 3.53957
head 15.0054 -0.253553 3.05143
rclavicle -2.38542e-015 -1.11319e-014
rhumerus -33.7947 -3.77479 -81.1969
rradius 34.1352
rwrist 15.2233
rhand -19.4589 1.80908
rfingers 7.12502
rthumb 6.86215 -28.0597
lclavicle -2.38542e-015 -1.11319e-014
lhumerus -31.4505 7.0313 86.6407
lradius 27.678
lwrist -8.7015
lhand -12.7202 26.9238
lfingers 7.12502
lthumb 13.3629 56.4753
rfemur -35.9472 2.98005 15.023
rtibia 28.7682
rfoot -10.7021 -5.70089
rtoes 1.00794
lfemur -4.32246 2.02679 -27.4396
ltibia 15.5647
lfoot -15.4876 0.64083
ltoes -13.6596
